HIERARCHY
ROOT Hips
{
	OFFSET 0.000000 0.000000 0.000000
	CHANNELS 6 Xposition Yposition Zposition Zrotation Yrotation Xrotation 
	JOINT LHipJoint
	{
		OFFSET 0.000000 0.000000 0.000000
		CHANNELS 3 Zrotation Yrotation Xrotation
		JOINT LeftUpLeg
		{
			OFFSET 1.363060 -1.794630 0.839290
			CHANNELS 3 Zrotation Yrotation Xrotation
			JOINT LeftLeg
			{
				OFFSET 2.448110 -6.726130 0.000000
				CHANNELS 3 Zrotation Yrotation Xrotation
				JOINT LeftFoot
				{
					OFFSET 2.562200 -7.039590 0.000000
					CHANNELS 3 Zrotation Yrotation Xrotation
					JOINT LeftToeBase
					{
						OFFSET 0.157640 -0.433110 2.322550
						CHANNELS 3 Zrotation Yrotation Xrotation
						End Site
						{
							OFFSET 0.000000 0.000000 0.000000
						}
					}
				}
			}
		}
	}
	JOINT RHipJoint
	{
		OFFSET 0.000000 0.000000 0.000000
		CHANNELS 3 Zrotation Yrotation Xrotation
		JOINT RightUpLeg
		{
			OFFSET -1.305520 -1.794630 0.839290
			CHANNELS 3 Zrotation Yrotation Xrotation
			JOINT RightLeg
			{
				OFFSET -2.542530 -6.985550 0.000000
				CHANNELS 3 Zrotation Yrotation Xrotation
				JOINT RightFoot
				{
					OFFSET -2.568260 -7.056230 0.000000
					CHANNELS 3 Zrotation Yrotation Xrotation
					JOINT RightToeBase
					{
						OFFSET -0.164730 -0.452590 2.363150
						CHANNELS 3 Zrotation Yrotation Xrotation
						End Site
						{
							OFFSET 0.000000 0.000000 0.000000
						}
					}
				}
			}
		}
	}
	JOINT LowerBack
	{
		OFFSET 0.000000 0.000000 0.000000
		CHANNELS 3 Zrotation Yrotation Xrotation
		JOINT Spine
		{
			OFFSET 0.028270 2.035590 -0.193380
			CHANNELS 3 Zrotation Yrotation Xrotation
			JOINT Spine1
			{
				OFFSET 0.056720 2.048850 -0.042750
				CHANNELS 3 Zrotation Yrotation Xrotation
				JOINT Neck
				{
					OFFSET 0.000000 0.000000 0.000000
					CHANNELS 3 Zrotation Yrotation Xrotation
					JOINT Neck1
					{
						OFFSET -0.054170 1.746240 0.172020
						CHANNELS 3 Zrotation Yrotation Xrotation
						JOINT Head
						{
							OFFSET 0.104070 1.761360 -0.123970
							CHANNELS 3 Zrotation Yrotation Xrotation
							End Site
							{
								OFFSET 0.000000 0.000000 0.000000
							}
						}
					}
				}
				JOINT LeftShoulder
				{
					OFFSET 0.000000 0.000000 0.000000
					CHANNELS 3 Zrotation Yrotation Xrotation
					JOINT LeftArm
					{
						OFFSET 3.362410 1.200890 -0.311210
						CHANNELS 3 Zrotation Yrotation Xrotation
						JOINT LeftForeArm
						{
							OFFSET 4.983000 -0.000000 -0.000000
							CHANNELS 3 Zrotation Yrotation Xrotation
							JOINT LeftHand
							{
								OFFSET 3.483560 -0.000000 -0.000000
								CHANNELS 3 Zrotation Yrotation Xrotation
								JOINT LeftFingerBase
								{
									OFFSET 0.000000 0.000000 0.000000
									CHANNELS 3 Zrotation Yrotation Xrotation
									JOINT LeftHandIndex1
									{
										OFFSET 0.715260 -0.000000 -0.000000
										CHANNELS 3 Zrotation Yrotation Xrotation
										End Site
										{
											OFFSET 0.000000 0.000000 0.000000
										}
									}
								}
								JOINT LThumb
								{
									OFFSET 0.000000 0.000000 0.000000
									CHANNELS 3 Zrotation Yrotation Xrotation
									End Site
									{
										OFFSET 0.000000 0.000000 0.000000
									}
								}
							}
						}
					}
				}
				JOINT RightShoulder
				{
					OFFSET 0.000000 0.000000 0.000000
					CHANNELS 3 Zrotation Yrotation Xrotation
					JOINT RightArm
					{
						OFFSET -3.136600 1.374050 -0.404650
						CHANNELS 3 Zrotation Yrotation Xrotation
						JOINT RightForeArm
						{
							OFFSET -5.241900 -0.000000 -0.000000
							CHANNELS 3 Zrotation Yrotation Xrotation
							JOINT RightHand
							{
								OFFSET -3.444170 -0.000000 -0.000000
								CHANNELS 3 Zrotation Yrotation Xrotation
								JOINT RightFingerBase
								{
									OFFSET 0.000000 0.000000 0.000000
									CHANNELS 3 Zrotation Yrotation Xrotation
									JOINT RightHandIndex1
									{
										OFFSET -0.622530 -0.000000 -0.000000
										CHANNELS 3 Zrotation Yrotation Xrotation
										End Site
										{
											OFFSET 0.000000 0.000000 0.000000
										}
									}
								}
								JOINT RThumb
								{
									OFFSET 0.000000 0.000000 0.000000
									CHANNELS 3 Zrotation Yrotation Xrotation
									End Site
									{
										OFFSET 0.000000 0.000000 0.000000
									}
								}
							}
						}
					}
				}
			}
		}
	}
}
MOTION
Frames: 10
Frame Time: 0.008333
0.854856 17.108143 1.237143 7.526002 -79.133273 12.417546 -10.022279 3.276521 6.554674 -7.735306 0.513437 -29.424473 -2.258929 -0.903246 12.775952 1.785936 9.191972 -6.332487 0.521499 0.000000 -46.960300 10.019025 -1.752227 2.390162 7.008435 -15.978526 -23.727188 2.281131 1.213850 10.699399 -3.045048 -14.821762 -4.295292 -2.120900 -0.000000 -65.966300 -0.744461 -4.052939 -11.325974 -0.272207 -4.339915 -4.407758 -6.916443 -4.260742 1.430549 13.452971 -14.453277 -9.954841 -3.724572 -0.271971 -0.551716 0.000000 0.000000 0.000000 18.039732 5.872574 -1.743030 -88.539560 0.800870 28.949088 177.272056 -50.883561 179.730740 18.621312 -40.726015 -7.561130 -0.378561 2.327447 -0.000000 0.000000 0.000000 0.000000 0.000000 0.000000 0.000000 6.273075 -11.299060 -2.767935 78.941644 14.353961 19.474351 -179.364732 46.317467 179.765970 -49.836411 53.339802 -27.767708 0.921484 -2.264151 -0.000000 0.000000 0.000000 0.000000 0.000000 0.000000 0.000000 
0.840432 17.115063 1.280428 5.974845 -76.822280 14.373111 -9.979116 3.298692 7.093995 -7.064140 -1.216866 -30.007730 -2.184992 -0.961930 12.324013 1.690595 8.676403 -5.824683 0.608299 -0.000000 -47.245800 9.991582 -1.877049 2.304484 7.691385 -17.065042 -23.536211 2.359646 1.331298 9.645079 -3.172681 -15.739558 -3.714621 -2.432201 0.000000 -65.948300 -0.602873 -3.926279 -11.851564 -0.237615 -4.234727 -4.476922 -6.818062 -4.162986 1.544230 13.166117 -13.864960 -9.795709 -3.766804 -0.276700 -0.512390 0.000000 0.000000 0.000000 18.280636 6.384054 -1.712012 -89.019264 -0.914038 30.872122 177.416813 -50.910589 179.734741 18.470495 -41.252334 -7.616323 -0.387385 2.389617 -0.000000 0.000000 0.000000 0.000000 0.000000 0.000000 0.000000 5.964344 -10.898109 -2.884830 78.263918 14.931842 17.995964 -179.339754 45.562488 179.767359 -50.519506 54.634626 -28.918965 0.898197 -2.296485 -0.000000 0.000000 0.000000 0.000000 0.000000 0.000000 0.000000 
0.830169 17.124004 1.324238 4.960476 -74.523567 15.750556 -9.914595 3.327071 7.610973 -6.387605 -2.932443 -30.475002 -2.113526 -1.025489 11.737513 1.594175 8.207834 -5.224866 0.702900 0.000000 -47.538900 9.991019 -1.994859 2.206812 8.309298 -18.145136 -23.273130 2.431999 1.444778 8.541368 -3.277858 -16.602524 -3.043412 -2.779100 -0.000000 -65.991700 -0.487642 -3.776302 -12.345370 -0.209874 -4.101365 -4.546058 -6.697840 -4.037355 1.627022 12.810641 -13.185444 -9.564142 -3.802654 -0.281315 -0.454356 0.000000 0.000000 0.000000 18.415925 6.929511 -1.683478 -89.463212 -2.760061 32.760140 177.612920 -51.005773 179.739383 18.441574 -41.741096 -7.715056 -0.401799 2.449557 -0.000000 0.000000 0.000000 0.000000 0.000000 0.000000 0.000000 5.578901 -10.423648 -3.006274 77.388674 15.611477 16.253335 -179.311584 44.879660 179.768093 -50.861973 55.790164 -29.799177 0.869636 -2.321697 -0.000000 0.000000 0.000000 0.000000 0.000000 0.000000 0.000000 
0.824289 17.134929 1.368194 4.277374 -72.254309 16.751027 -9.837436 3.356541 8.096427 -5.715637 -4.599615 -30.831250 -2.047567 -1.091853 11.039017 1.494007 7.767311 -4.543681 0.800800 0.000000 -47.833600 10.010426 -2.109558 2.102625 8.855076 -19.192695 -22.929367 2.496246 1.553516 7.389110 -3.362051 -17.417130 -2.281314 -3.164300 -0.000001 -66.094900 -0.399309 -3.598548 -12.803771 -0.189588 -3.934678 -4.616085 -6.556516 -3.878778 1.672152 12.382464 -12.411405 -9.251943 -3.830921 -0.285815 -0.375118 0.000000 0.000000 0.000000 18.420925 7.502369 -1.662076 -89.857502 -4.739550 34.604468 177.865986 -51.178255 179.744728 18.533536 -42.182057 -7.856948 -0.422050 2.506523 -0.000000 0.000000 0.000000 0.000000 0.000000 0.000000 0.000000 5.119375 -9.866242 -3.127298 76.254043 16.360377 14.198459 -179.272448 44.291318 179.767899 -50.853387 56.711750 -30.328528 0.838629 -2.336453 -0.000000 0.000000 0.000000 0.000000 0.000000 0.000000 0.000000 
0.822978 17.147861 1.410970 3.859181 -70.033950 17.426388 -9.748763 3.383065 8.539331 -5.077031 -6.202975 -31.041918 -1.990804 -1.161218 10.226134 1.390520 7.359190 -3.783111 0.900800 0.000000 -48.120400 10.052382 -2.219416 1.987372 9.295812 -20.218143 -22.494966 2.550268 1.651966 6.213901 -3.421474 -18.157882 -1.440044 -3.578100 0.000000 -66.261000 -0.358383 -3.391322 -13.207882 -0.181452 -3.729692 -4.684766 -6.397363 -3.681761 1.674520 11.886707 -11.546220 -8.854506 -3.851842 -0.290276 -0.273342 0.000000 0.000000 0.000000 18.289063 8.087581 -1.654548 -90.188726 -6.850719 36.391814 178.173864 -51.414558 179.750416 18.750440 -42.516687 -8.033933 -0.448852 2.558829 -0.000000 0.000000 0.000000 0.000000 0.000000 0.000000 0.000000 4.604446 -9.224094 -3.237303 74.801409 17.141512 11.792175 -179.217905 43.812437 179.766934 -50.570605 57.327157 -30.500876 0.809189 -2.338379 -0.000000 0.000000 0.000000 0.000000 0.000000 0.000000 0.000000 
0.826172 17.162604 1.452343 3.598992 -67.880123 17.882641 -9.656217 3.402278 8.932654 -4.478546 -7.708678 -31.123927 -1.946031 -1.230766 9.332939 1.281642 6.961590 -2.961841 0.997100 0.000000 -48.396000 10.110452 -2.328057 1.868781 9.636695 -21.187639 -21.966515 2.592137 1.740615 5.014710 -3.461151 -18.843012 -0.523238 -4.022300 0.000000 -66.482701 -0.350561 -3.149428 -13.558709 -0.183281 -3.482576 -4.752897 -6.221522 -3.442620 1.634420 11.328129 -10.598579 -8.374727 -3.861971 -0.294439 -0.149427 0.000000 0.000000 0.000000 17.997486 8.678267 -1.665578 -90.456460 -9.087621 38.101681 178.539126 -51.728123 179.756720 19.055866 -42.773500 -8.236145 -0.480684 2.606326 -0.000000 0.000000 0.000000 0.000000 0.000000 0.000000 0.000000 4.041835 -8.499257 -3.326969 72.971617 17.910699 9.008687 -179.141810 43.450596 179.765376 -50.164368 57.604607 -30.390191 0.784678 -2.325841 -0.000000 0.000000 0.000000 0.000000 0.000000 0.000000 0.000000 
0.833656 17.179068 1.490980 3.493763 -65.813917 18.110147 -9.558718 3.411363 9.269237 -3.951454 -9.114489 -31.041246 -1.916249 -1.300820 8.358917 1.170084 6.589243 -2.085011 1.090001 0.000000 -48.645100 10.188734 -2.431975 1.738414 9.847857 -22.129490 -21.346380 2.621450 1.812488 3.833335 -3.476909 -19.435859 0.446362 -4.477600 -0.000000 -66.753800 -0.392105 -2.873528 -13.836590 -0.198731 -3.191810 -4.816922 -6.033920 -3.159339 1.554157 10.720671 -9.583377 -7.819813 -3.859917 -0.298159 -0.005272 0.000000 0.000000 0.000000 17.541292 9.260907 -1.699111 -90.650127 -11.436928 39.716856 178.956281 -52.111033 179.763555 19.425438 -42.946207 -8.451323 -0.516598 2.648271 -0.000000 0.000000 0.000000 0.000000 0.000000 0.000000 0.000000 3.456342 -7.701105 -3.383391 70.728383 18.628729 5.838963 -179.046288 43.209369 179.763922 -49.823502 57.559423 -30.128927 0.768079 -2.298889 -0.000000 0.000000 0.000000 0.000000 0.000000 0.000000 0.000000 
0.844932 17.196936 1.526493 3.503893 -63.854849 18.149764 -9.460504 3.408037 9.547033 -3.507363 -10.408518 -30.799781 -1.902787 -1.369617 7.329376 1.057193 6.240184 -1.170177 1.177200 0.000000 -48.857300 10.283481 -2.531294 1.596348 9.930222 -23.042620 -20.646978 2.638805 1.865384 2.693590 -3.470777 -19.930597 1.452116 -4.932100 -0.000001 -67.063500 -0.470569 -2.563406 -14.039059 -0.224958 -2.858901 -4.875710 -5.834485 -2.833548 1.441075 10.069662 -8.520347 -7.205007 -3.842772 -0.301158 0.155285 0.000000 0.000000 0.000000 16.908172 9.830056 -1.754177 -90.764679 -13.876088 41.220501 179.415121 -52.547819 179.770916 19.834850 -43.027117 -8.666384 -0.555824 2.684186 -0.000000 0.000000 0.000000 0.000000 0.000000 0.000000 0.000000 2.855576 -6.839793 -3.398750 68.053947 19.262499 2.295028 -178.935558 43.097732 179.763247 -49.714808 57.248776 -29.859653 0.760443 -2.258407 -0.000000 0.000000 0.000000 0.000000 0.000000 0.000000 0.000000 
0.859860 17.215901 1.558780 3.585305 -62.021653 18.045541 -9.368129 3.390366 9.764800 -3.149672 -11.574892 -30.417201 -1.905186 -1.434490 6.278363 0.943975 5.907105 -0.239227 1.255400 0.000000 -49.027300 10.387373 -2.626598 1.444286 9.896848 -23.914580 -19.879450 2.644717 1.899390 1.609475 -3.447852 -20.338079 2.479051 -5.378899 0.000000 -67.401500 -0.560850 -2.219651 -14.167290 -0.256052 -2.487909 -4.928334 -5.620726 -2.469600 1.304485 9.373106 -7.432011 -6.550057 -3.807864 -0.303163 0.327195 0.000000 0.000000 0.000000 16.086217 10.384761 -1.825831 -90.793998 -16.377131 42.593851 179.901913 -53.017163 179.778753 20.262338 -43.012756 -8.869525 -0.597629 2.713949 -0.000000 0.000000 0.000000 0.000000 0.000000 0.000000 0.000000 2.237444 -5.926481 -3.370639 64.954885 19.793384 -1.591555 -178.815911 43.134775 179.763983 -49.943945 56.759442 -29.697657 0.760883 -2.205899 -0.000000 0.000000 0.000000 0.000000 0.000000 0.000000 0.000000 
0.877909 17.235629 1.587649 3.727406 -60.331626 17.813567 -9.285247 3.357833 9.924374 -2.884767 -12.612810 -29.903908 -1.922155 -1.494137 5.230119 0.833279 5.596165 0.689573 1.324200 0.000000 -49.144500 10.495618 -2.716381 1.279187 9.754560 -24.756772 -19.066775 2.641557 1.912793 0.610753 -3.410083 -20.650056 3.505036 -5.802900 -0.000000 -67.756000 -0.645096 -1.845884 -14.220333 -0.286972 -2.085217 -4.973101 -5.389386 -2.074026 1.154216 8.623677 -6.344158 -5.877199 -3.753807 -0.303988 0.504621 0.000000 0.000000 0.000000 15.073312 10.924020 -1.906702 -90.725711 -18.906780 43.814708 -179.600435 -53.493227 179.786858 20.688871 -42.910048 -9.052439 -0.640946 2.737701 -0.000000 0.000000 0.000000 0.000000 0.000000 0.000000 0.000000 1.597300 -4.976681 -3.301596 61.465380 20.221327 -5.770018 -178.695560 43.358719 179.766725 -50.542993 56.192523 -29.715931 0.766749 -2.142988 -0.000000 0.000000 0.000000 0.000000 0.000000 0.000000 0.000000 
